<svg width="173" height="51" viewBox="0 0 173 51" fill="none" xmlns="http://www.w3.org/2000/svg">
<mask id="mask0_2_13" style="mask-type:alpha" maskUnits="userSpaceOnUse" x="0" y="0" width="173" height="50">
<path d="M0 0H172.522V49.8081H0V0Z" fill="white"/>
</mask>
<g mask="url(#mask0_2_13)">
<path fill-rule="evenodd" clip-rule="evenodd" d="M134.439 36.7261C134.439 41.4585 131.555 43.0224 128.908 43.0224V49.8058C132.875 49.8058 141.28 48.6904 141.323 36.8467V11.5295H134.439V36.7261ZM121.894 37.0789H128.855V0H121.894V37.0812V37.0789ZM165.588 24.4863C165.588 20.8533 162.606 17.9078 158.932 17.9078C155.258 17.9078 152.279 20.8533 152.279 24.4863C152.279 28.1171 155.258 31.0626 158.932 31.0626C162.609 31.0626 165.588 28.1171 165.588 24.4841V24.4863ZM172.517 25.2466V37.0857H166.349V34.4498C164.339 36.4575 161.737 37.6753 158.932 37.6753C151.543 37.6753 145.554 31.7569 145.554 24.4522C145.554 17.1498 151.543 11.2313 158.932 11.2313C166.308 11.2313 172.517 16.9972 172.517 25.2466ZM49.4826 24.4863C49.4826 20.8533 46.5006 17.9078 42.8266 17.9078C39.1526 17.9078 36.1729 20.8533 36.1729 24.4863C36.1729 28.1171 39.1526 31.0626 42.8266 31.0626C46.5028 31.0626 49.4826 28.1171 49.4826 24.4841V24.4863ZM56.4117 25.2466V37.0857H50.2428V34.4498C48.2329 36.4575 45.631 37.6753 42.8266 37.6753C35.4377 37.6753 29.4487 31.7569 29.4487 24.4522C29.4487 17.1498 35.4377 11.2313 42.8266 11.2313C50.2041 11.2313 56.4117 16.9972 56.4117 25.2466ZM110.802 24.4863C110.802 20.8533 107.822 17.9078 104.148 17.9078C100.472 17.9078 97.4923 20.8533 97.4923 24.4863C97.4923 28.1171 100.474 31.0626 104.148 31.0626C107.822 31.0626 110.802 28.1171 110.802 24.4841V24.4863ZM117.526 24.4863C117.526 31.7888 111.537 37.7072 104.148 37.7072C96.7593 37.7072 90.7681 31.7888 90.7681 24.4863C90.7681 17.1816 96.7593 11.2632 104.148 11.2632C111.537 11.2632 117.526 17.1816 117.526 24.4863ZM21.6933 11.5364L14.9258 27.5616L7.98304 11.5364H0L11.2746 35.506L4.83717 49.7398H12.5379L29.6968 11.5364H21.6933ZM86.4841 22.0871V37.0857H79.646V22.6471C79.646 19.6469 77.6793 17.3819 74.1441 17.3819C70.9277 17.3819 68.6309 19.6469 68.6309 22.7085L68.6241 37.0857H61.8088V11.5295H68.3578V14.5343C70.0013 12.0121 73.3816 11.2336 75.7672 11.2336C83.6159 11.2336 86.4841 16.3439 86.4841 22.0871Z" fill="white"/>
</g>
</svg>
